<?xml version="1.0" standalone="no"?>
<!DOCTYPE svg PUBLIC "-//W3C//DTD SVG 20010904//EN"
 "http://www.w3.org/TR/2001/REC-SVG-20010904/DTD/svg10.dtd">
<svg version="1.0" xmlns="http://www.w3.org/2000/svg"
 width="1024.000000pt" height="1024.000000pt" viewBox="0 0 1024.000000 1024.000000"
 preserveAspectRatio="xMidYMid meet">
<metadata>
Created by potrace 1.11, written by Peter Selinger 2001-2013
</metadata>
<g transform="translate(0.000000,1024.000000) scale(0.100000,-0.100000)"
fill="#000000" stroke="none">
<path d="M0 5120 l0 -5120 2280 0 2280 0 2 3948 3 3947 27 50 c31 59 67 94
128 126 l45 24 1455 0 1455 0 50 -27 c59 -31 94 -67 126 -128 l24 -45 3 -3947
2 -3948 1180 0 1180 0 0 5120 0 5120 -5120 0 -5120 0 0 -5120z"/>
<path d="M5295 7185 c-55 -19 -135 -107 -165 -181 l-25 -59 -3 -1142 -2 -1143
270 0 270 0 -2 1143 -3 1142 -25 60 c-32 78 -118 169 -175 184 -53 14 -91 13
-140 -4z"/>
<path d="M6155 7185 c-55 -19 -135 -107 -165 -181 l-25 -59 -3 -1142 -2 -1143
270 0 270 0 -2 1143 -3 1142 -25 60 c-32 78 -118 169 -175 184 -53 14 -91 13
-140 -4z"/>
<path d="M7015 7185 c-55 -19 -135 -107 -165 -181 l-25 -59 -3 -1142 -2 -1143
270 0 270 0 -2 1143 -3 1142 -25 60 c-32 78 -118 169 -175 184 -53 14 -91 13
-140 -4z"/>
</g>
</svg>
